<svg version="1" xmlns="http://www.w3.org/2000/svg" width="346.667" height="346.667" viewBox="0 0 260.000000 260.000000"><path d="M152.9 56.7c-19.8 4.9-35.2 20.9-39.4 40.8-1.6 7.7-1.4 19.8.4 26.5 4 14.2 17.3 29 30.9 34.3 13.8 5.5 34.5 4.8 44.6-1.4 1.7-1.1 3.4-1.9 3.8-1.9.3 0 2.9 2.8 5.7 6.3l5 6.3 6 .1c3.4 0 6.1-.1 6.1-.4 0-.2-3.1-4.3-7-9.1-3.8-4.8-7-9-7-9.3 0-.3 1.2-1.9 2.6-3.5 1.4-1.6 4.2-5.3 6.1-8.2 10-15.4 10.9-36.8 2.1-53.6-6.3-11.9-21.1-23.8-33.3-26.7-7.2-1.7-20.3-1.8-26.6-.2zm25.7 10.8c12 4 22.5 14.3 27.1 26.5 1.9 5 2.2 7.6 2 16.2-.2 9.1-.6 11.1-3.3 16.8-2.9 6.1-7.8 13-9.2 13-.4 0-3.2-3.3-6.2-7.2-3-4-6.3-8.2-7.2-9.3-1-1.1-2.3-2.8-3.1-3.8-1-1.5-2.8-1.9-7.5-2-3.4-.1-6.2 0-6.2.3.1.3 5 6.8 11.1 14.4 12.5 15.8 12.4 14.8 1.3 18.1-14 4.2-29.3.8-40.2-9-9.7-8.7-14.3-19.3-14.3-32.5.1-17.1 8.8-31.5 23.7-39 9.8-5 21.5-5.9 32-2.5zM226.2 56.1c-2 .8-4.2 3.8-4.2 5.8 0 1.9 3.5 1.2 4.8-.9 1.5-2.5 5.8-2.6 7.1-.2 1.1 2 .4 6.1-1 6.3-.5.1-1.5.2-2.1.3-2.5.2-2 3.3.6 4 1.4.3 3 1.5 3.6 2.7 1.5 2.8-1.1 6.9-4.5 6.9-2.4 0-5.5-2.3-5.5-4.1 0-.5-.9-.9-2-.9-2.9 0-2.5 2.7.9 6.1 3.1 3 6.1 3.6 10.5 1.9 2.7-1 5.5-5.5 5.1-8.1-.6-3.8-1.7-5.9-3.1-5.9-1.2 0-1.1-.5.5-2.6 3.1-3.9 1.7-9.6-2.7-11.2-3.1-1.2-5-1.2-8-.1zM67.5 60c-.6 2-4.2 9.7-19.6 41.9-3.8 7.9-6.9 14.5-6.9 14.6 0 .2-3 6.5-6.6 14.2C27.1 145.9 21 159 21 159.4c0 .1 2.5.2 5.6.3h5.6l4-8.6c2.2-4.7 5.7-12.2 7.8-16.7l3.8-8.1h21.8l21.8.1 5.8 12c10.9 22.7 9.6 21 15.6 21.2 2.9.1 5.2-.2 5.2-.6 0-.4-2.3-5.6-5.1-11.6s-6.9-14.7-9.1-19.4c-2.1-4.7-5.7-12.3-7.9-17-2.2-4.7-8.6-18.4-14.2-30.5C71.6 58.8 69 55.1 67.5 60zM74 88.2c2.1 4.6 5.9 12.7 8.4 18.1 2.5 5.5 4.6 10 4.6 10 0 .2-30.4 0-32.7-.2-1.6-.1-1.3-.9 7.6-19.4 3.9-8.2 7.1-15.3 7.1-15.8 0-2.4 1.4-.2 5 7.3zM28.5 188.7C22.5 201 21 205 22.3 205c.7 0 1.9-1.6 2.7-3.5 1.3-3.4 1.6-3.5 6.5-3.5s5.2.1 6.5 3.5c.8 1.9 2 3.5 2.7 3.5 1.7 0 1.8.4-2.2-7.8-1.9-4-4.1-8.8-4.9-10.7-.8-1.9-1.7-3.5-1.9-3.5-.2 0-1.6 2.6-3.2 5.7zm6.5 6.4c0 .7-5.1.9-6.2.2-.4-.2 0-2 .9-3.9l1.7-3.5 1.8 3.3c.9 1.8 1.7 3.6 1.8 3.9zM51.5 194c0 7.2.3 11 1 11 .6 0 1.2-2.1 1.4-4.7.1-2.6.4-4.9.6-5.1.2-.2 2.1 1.9 4.2 4.7 2.1 2.7 4.4 5 5.1 5 1.9.1 1.5-.7-2.4-5.5-3.2-3.9-3.4-4.4-1.6-4.4 1.1 0 3-1.2 4.1-2.6 1.6-2.1 1.8-3 1-5.2-1.4-3.6-2.5-4.2-8.4-4.2h-5v11zm10.9-6.8c1.7 2.7-.4 5.1-4.7 5.4l-3.7.4v-4.1c0-4 0-4 3.6-3.7 2.2.2 4.2 1 4.8 2zM75.9 183.2c-.1.4-.1 18 0 20 .1 1 .6 1.8 1.1 1.8.6 0 1-2.3 1-5v-5l4.8 5.1c2.7 2.9 5.4 5 6 4.8.6-.2-1.1-2.8-3.8-5.7-2.8-3-5-5.6-5-6 0-.3 2.1-2.8 4.7-5.4 2.6-2.6 4.1-4.8 3.3-4.8-.8 0-3.4 1.9-5.7 4.2l-4.3 4.2v-4.2c0-2.3-.4-4.2-1-4.2-.5 0-1 .1-1.1.2zM99.8 184.2c-.3 1.1-.3 14.4.1 19.3.1.8.6 1.5 1.1 1.5.6 0 1-4.3 1-11 0-6.1-.4-11-.9-11s-1.1.6-1.3 1.2zM111 183.9c0 .5 1 1.1 2.3 1.3 2.1.3 2.2.8 2.5 9.7.1 5.2.5 9.7.7 10 1.2 1.2 1.6-1.4 1.7-10.3 0-9.5 0-9.6 2.4-9.6 1.3 0 2.4-.5 2.4-1 0-.6-2.7-1-6-1s-6 .4-6 .9zM132 194v11h6.5c3.7 0 6.5-.4 6.5-1s-2.4-1-5.3-1h-5.3v-4.5l-.1-4.5 5 .2c3.3.2 5.2-.1 5.4-1 .3-.8-1.1-1.2-5-1.2h-5.5l.1-3.5.1-3.5h5.3c2.9 0 5.3-.5 5.3-1 0-.6-2.8-1-6.5-1H132v11zM155 194c0 6.7.4 11 1 11s1-2.3 1-5.2v-5.2l4.9 5.2c4.4 4.7 7.2 6.4 7.1 4.4 0-.4-2.3-2.9-5-5.7-2.8-2.7-5-5.3-5-5.6 0-.4 2-2.5 4.5-4.8s4.5-4.4 4.5-4.6c0-1.6-3 .1-6.7 3.7l-4.3 4.2v-4.2c0-2.3-.4-4.2-1-4.2s-1 4.3-1 11zM177.5 184c.3.5 1.4 1 2.5 1 2.4 0 2.7 1.1 2.5 11.2-.1 6.6.2 8.8 1.2 8.8s1.3-2.5 1.3-10v-10h2.5c1.4 0 2.5-.5 2.5-1 0-.6-2.9-1-6.6-1-4.1 0-6.3.4-5.9 1zM199 192.3c0 10.4 1.1 12.6 6.8 13.3 2.7.3 7-2.3 7.3-4.4.4-2.4.5-15.9.1-17-1-3-2.1-.7-2.1 4.5.1 11.8 0 12.2-2.6 13.9-2.3 1.5-2.7 1.5-5 0-2.4-1.6-2.5-2.2-2.5-10.6 0-5.3-.4-9-1-9s-1 3.8-1 9.3zM225 194.1c0 8.1.3 11 1.2 10.7.7-.3 1.2-2.3 1.1-5.1-.1-5.2.7-5.9 3-2.5 2.9 4.4 6.5 8 7.6 7.7.6-.2-.5-2.4-2.5-4.8l-3.5-4.5 2.9-1.2c4.5-1.9 5.5-6.1 2.2-9.4-1.5-1.5-3.3-2-7-2h-5v11.1zm10.3-7.6c1.6 1.6 1.2 5.1-.6 5.8-.7.2-2.5.4-4.2.3-2.4-.1-3-.6-3.2-2.6-.1-1.4 0-3.1.2-3.8.6-1.7 6-1.5 7.8.3z"/></svg>